<?xml version="1.0" encoding="us-ascii" standalone="no"?><svg xmlns="http://www.w3.org/2000/svg" xmlns:xlink="http://www.w3.org/1999/xlink" contentStyleType="text/css" height="603px" preserveAspectRatio="none" style="width:626px;height:603px;background:#FFFFFF;" version="1.1" viewBox="0 0 626 603" width="626px" zoomAndPan="magnify"><defs/><g><text fill="#000000" font-family="sans-serif" font-size="14" font-weight="bold" lengthAdjust="spacing" textLength="272" x="170" y="23.5352">Docker Image Roles and Build Phases</text><!--cluster Hosting--><g id="cluster_Hosting"><rect fill="none" height="87.49" rx="2.5" ry="2.5" style="stroke:#181818;stroke-width:1.0;" width="78" x="428" y="44.4883"/><text fill="#000000" font-family="sans-serif" font-size="14" font-weight="bold" lengthAdjust="spacing" textLength="57" x="438.5" y="60.0234">Hosting</text></g><!--cluster Remote--><g id="cluster_Remote"><rect fill="none" height="87.49" rx="2.5" ry="2.5" style="stroke:#181818;stroke-width:1.0;" width="284" x="222" y="164.9783"/><text fill="#000000" font-family="sans-serif" font-size="14" font-weight="bold" lengthAdjust="spacing" textLength="55" x="336.5" y="180.5134">Remote</text></g><!--cluster local/CI--><g id="cluster_local/CI"><rect fill="none" height="312.42" rx="2.5" ry="2.5" style="stroke:#181818;stroke-width:1.0;" width="613" x="7" y="285.4683"/><text fill="#000000" font-family="sans-serif" font-size="14" font-weight="bold" lengthAdjust="spacing" textLength="57" x="285" y="301.0034">local/CI</text></g><!--cluster builder--><g id="cluster_builder"><rect fill="none" height="103.49" rx="2.5" ry="2.5" style="stroke:#181818;stroke-width:2.0;" width="288" x="39" y="336.4683"/><text fill="#000000" font-family="sans-serif" font-size="14" font-weight="bold" lengthAdjust="spacing" textLength="51" x="157.5" y="352.0034">builder</text></g><!--cluster runner--><g id="cluster_runner"><rect fill="none" height="103.49" rx="2.5" ry="2.5" style="stroke:#181818;stroke-width:2.0;" width="159" x="367" y="336.4683"/><text fill="#000000" font-family="sans-serif" font-size="14" font-weight="bold" lengthAdjust="spacing" textLength="47" x="423" y="352.0034">runner</text></g><!--entity app''--><g id="elem_app''"><rect fill="#F1F1F1" height="36.4883" rx="2.5" ry="2.5" style="stroke:#181818;stroke-width:0.5;" width="46" x="444" y="79.4883"/><text fill="#000000" font-family="sans-serif" font-size="14" lengthAdjust="spacing" textLength="26" x="454" y="103.0234">app</text></g><!--entity builder'--><g id="elem_builder'"><rect fill="#F1F1F1" height="36.4883" rx="2.5" ry="2.5" style="stroke:#181818;stroke-width:0.5;" width="69" x="237.5" y="199.9783"/><text fill="#000000" font-family="sans-serif" font-size="14" lengthAdjust="spacing" textLength="49" x="247.5" y="223.5134">builder</text></g><!--entity runner'--><g id="elem_runner'"><rect fill="#F1F1F1" height="36.4883" rx="2.5" ry="2.5" style="stroke:#181818;stroke-width:0.5;" width="67" x="341.5" y="199.9783"/><text fill="#000000" font-family="sans-serif" font-size="14" lengthAdjust="spacing" textLength="47" x="351.5" y="223.5134">runner</text></g><!--entity app'--><g id="elem_app'"><rect fill="#F1F1F1" height="36.4883" rx="2.5" ry="2.5" style="stroke:#181818;stroke-width:0.5;" width="46" x="444" y="199.9783"/><text fill="#000000" font-family="sans-serif" font-size="14" lengthAdjust="spacing" textLength="26" x="454" y="223.5134">app</text></g><!--entity app--><g id="elem_app"><rect fill="#F1F1F1" height="32.4883" rx="2.5" ry="2.5" style="stroke:#181818;stroke-width:2.0;" width="42" x="562" y="383.4683"/><rect fill="#F1F1F1" height="32.4883" rx="2.5" ry="2.5" style="stroke:#181818;stroke-width:2.0;" width="42" x="558" y="379.4683"/><text fill="#000000" font-family="sans-serif" font-size="14" lengthAdjust="spacing" textLength="26" x="566" y="401.0034">app</text></g><g id="elem_GMN21"><path d="M481.5,525.9583 L481.5,581.8899 A0,0 0 0 0 481.5,581.8899 L604.5,581.8899 A0,0 0 0 0 604.5,581.8899 L604.5,535.9583 L594.5,525.9583 L553.73,525.9583 L576.64,416.3983 L545.73,525.9583 L481.5,525.9583 A0,0 0 0 0 481.5,525.9583 " fill="#FEFFDD" style="stroke:#181818;stroke-width:0.5;"/><path d="M594.5,525.9583 L594.5,535.9583 L604.5,535.9583 L594.5,525.9583 " fill="#FEFFDD" style="stroke:#181818;stroke-width:0.5;"/><text fill="#000000" font-family="sans-serif" font-size="13" lengthAdjust="spacing" textLength="65" x="487.5" y="543.5266">Dockerfile</text><text fill="#000000" font-family="sans-serif" font-size="13" lengthAdjust="spacing" textLength="102" x="487.5" y="558.8372">several CMDs or</text><text fill="#000000" font-family="sans-serif" font-size="13" lengthAdjust="spacing" textLength="87" x="487.5" y="574.1477">ENTRYPOINTs</text></g><!--entity dev--><g id="elem_dev"><rect fill="#F1F1F1" height="36.4883" rx="2.5" ry="2.5" style="stroke:#181818;stroke-width:0.5;" width="44" x="82" y="379.4683"/><text fill="#000000" font-family="sans-serif" font-size="14" lengthAdjust="spacing" textLength="24" x="92" y="403.0034">dev</text></g><!--entity runtime--><g id="elem_runtime"><rect fill="#F1F1F1" height="36.4883" rx="2.5" ry="2.5" style="stroke:#181818;stroke-width:0.5;" width="74" x="229" y="379.4683"/><text fill="#000000" font-family="sans-serif" font-size="14" lengthAdjust="spacing" textLength="54" x="239" y="403.0034">runtime</text></g><!--entity runtime'--><g id="elem_runtime'"><rect fill="#F1F1F1" height="36.4883" rx="2.5" ry="2.5" style="stroke:#181818;stroke-width:1.0;stroke-dasharray:1.0,3.0;" width="91" x="410.5" y="379.4683"/><text fill="#000000" font-family="sans-serif" font-size="14" lengthAdjust="spacing" textLength="71" x="420.5" y="403.0034">3. runtime</text></g><!--entity source--><g id="elem_source"><rect fill="#F1F1F1" height="36.4883" rx="2.5" ry="2.5" style="stroke:#181818;stroke-width:0.5;" width="66" x="144" y="535.6783"/><text fill="#000000" font-family="sans-serif" font-size="14" lengthAdjust="spacing" textLength="46" x="154" y="559.2134">source</text></g><!--entity source'--><g id="elem_source'"><rect fill="#F1F1F1" height="36.4883" rx="2.5" ry="2.5" style="stroke:#181818;stroke-width:0.5;" width="69" x="362.5" y="535.6783"/><text fill="#000000" font-family="sans-serif" font-size="14" lengthAdjust="spacing" textLength="49" x="372.5" y="559.2134">source'</text></g><g id="elem_GMN4"><path d="M215,85.0783 L215,110.3888 A0,0 0 0 0 215,110.3888 L409,110.3888 A0,0 0 0 0 409,110.3888 L409,103.0783 L443.63,97.7383 L409,95.0783 L409,95.0783 L399,85.0783 L215,85.0783 A0,0 0 0 0 215,85.0783 " fill="#FEFFDD" style="stroke:#181818;stroke-width:0.5;"/><path d="M399,85.0783 L399,95.0783 L409,95.0783 L399,85.0783 " fill="#FEFFDD" style="stroke:#181818;stroke-width:0.5;"/><text fill="#000000" font-family="sans-serif" font-size="13" lengthAdjust="spacing" textLength="173" x="221" y="102.6466">build and deploy frequently</text></g><!--link builder' to runner'--><!--link runner' to app'--><!--link dev to runtime--><g id="link_dev_runtime"><path d="M126.19,397.7083 C152.53,397.7083 190.88,397.7083 222.57,397.7083 " fill="none" id="dev-to-runtime" style="stroke:#181818;stroke-width:1.0;"/><polygon fill="#181818" points="228.57,397.7083,219.57,393.7083,223.57,397.7083,219.57,401.7083,228.57,397.7083" style="stroke:#181818;stroke-width:1.0;"/><text fill="#000000" font-family="sans-serif" font-size="13" lengthAdjust="spacing" textLength="66" x="144.5" y="376.2766">1. compile</text><text fill="#000000" font-family="sans-serif" font-size="13" lengthAdjust="spacing" textLength="65" x="145" y="391.5872">slim down</text></g><!--link runtime to runtime'--><!--link runtime to runtime'--><g id="link_runtime_runtime'"><path d="M303.08,397.7083 C333.76,397.7083 371.45,397.7083 404.28,397.7083 " fill="none" id="runtime-to-runtime'" style="stroke:#181818;stroke-width:1.0;"/><polygon fill="#181818" points="410.28,397.7083,401.28,393.7083,405.28,397.7083,401.28,401.7083,410.28,397.7083" style="stroke:#181818;stroke-width:1.0;"/></g><!--link runtime' to app--><g id="link_runtime'_app"><path d="M501.84,397.7083 C520.79,397.7083 535.95,397.7083 551.62,397.7083 " fill="none" id="runtime'-to-app" style="stroke:#181818;stroke-width:1.0;"/><polygon fill="#181818" points="557.62,397.7083,548.62,393.7083,552.62,397.7083,548.62,401.7083,557.62,397.7083" style="stroke:#181818;stroke-width:1.0;"/><text fill="#000000" font-family="sans-serif" font-size="13" lengthAdjust="spacing" textLength="8" x="531.75" y="391.2766">4</text></g><!--reverse link dev to source--><g id="link_dev_source"><path d="M108.0608,422.2327 C111.8808,442.3227 118.6,469.8583 132,495.9583 C139.37,510.3083 150.62,524.5483 160.03,535.1983 " fill="none" id="dev-backto-source" style="stroke:#181818;stroke-width:1.0;"/><polygon fill="#181818" points="106.94,416.3383,104.6916,425.9271,107.874,421.2503,112.5508,424.4327,106.94,416.3383" style="stroke:#181818;stroke-width:1.0;"/><text fill="#000000" font-family="sans-serif" font-size="13" lengthAdjust="spacing" textLength="55" x="135" y="477.5266">1. install</text><text fill="#000000" font-family="sans-serif" font-size="13" lengthAdjust="spacing" textLength="59" x="133" y="492.8372">packages</text></g><!--reverse link runtime to source--><g id="link_runtime_source"><path d="M252.7908,421.5949 C235.6208,451.3449 204.18,505.8283 187.09,535.4383 " fill="none" id="runtime-backto-source" style="stroke:#181818;stroke-width:1.0;"/><polygon fill="#181818" points="255.79,416.3983,247.8268,422.1937,253.2907,420.7288,254.7556,426.1927,255.79,416.3983" style="stroke:#181818;stroke-width:1.0;"/><text fill="#000000" font-family="sans-serif" font-size="13" lengthAdjust="spacing" textLength="66" x="227" y="477.5266">2. compile</text><text fill="#000000" font-family="sans-serif" font-size="13" lengthAdjust="spacing" textLength="23" x="248.5" y="492.8372">app</text></g><!--link runtime to source'--><g id="link_runtime_source'"><path d="M281.03,416.3983 C306.3,446.1483 353.1158,501.2552 378.2658,530.8652 " fill="none" id="runtime-to-source'" style="stroke:#181818;stroke-width:1.0;"/><polygon fill="#181818" points="382.15,535.4383,379.3723,525.9892,378.9131,531.6274,373.275,531.1682,382.15,535.4383" style="stroke:#181818;stroke-width:1.0;"/><text fill="#000000" font-family="sans-serif" font-size="13" lengthAdjust="spacing" textLength="8" x="348" y="485.0266">2</text></g><!--reverse link runtime' to source'--><g id="link_runtime'_source'"><path d="M447.0864,422.0023 C435.7064,451.7523 415.02,505.8283 403.69,535.4383 " fill="none" id="runtime'-backto-source'" style="stroke:#181818;stroke-width:1.0;"/><polygon fill="#181818" points="449.23,416.3983,442.2785,423.3752,447.4436,421.0683,449.7505,426.2334,449.23,416.3983" style="stroke:#181818;stroke-width:1.0;"/><text fill="#000000" font-family="sans-serif" font-size="13" lengthAdjust="spacing" textLength="37" x="431" y="485.0266">whole</text></g><!--reverse link builder' to builder--><g id="link_builder'_builder"><path d="M231.3512,218.5186 C184.9912,219.4486 109.58,228.4383 66,277.4683 C57.225,287.3383 51.6181,299.572 48.1516,312.4084 C46.4183,318.8266 45.2201,325.3955 44.4285,331.8949 C44.3295,332.7073 44.2369,333.5187 44.1504,334.3285 C44.1072,334.7334 44.0655,335.1379 44.0252,335.542 C44.0051,335.7441 43.9854,335.946 43.966,336.1479 " fill="none" id="builder'-backto-builder" style="stroke:#181818;stroke-width:1.0;"/><polygon fill="#181818" points="237.35,218.3983,228.2716,214.5796,232.351,218.4986,228.432,222.578,237.35,218.3983" style="stroke:#181818;stroke-width:1.0;"/></g><!--reverse link runner' to runner--><g id="link_runner'_runner"><path d="M375,242.8883 C375,264.9883 375,298.0508 375,332.0245 C375,333.0862 375,334.1429 375,335.194 C375,335.4568 375,335.7192 375,335.9812 " fill="none" id="runner'-backto-runner" style="stroke:#181818;stroke-width:1.0;"/><polygon fill="#181818" points="375,236.8883,371,245.8883,375,241.8883,379,245.8883,375,236.8883" style="stroke:#181818;stroke-width:1.0;"/></g><!--reverse link app' to app--><g id="link_app'_app"><path d="M488.5786,241.3208 C499.0086,252.4208 508.02,262.9583 518,277.4683 C541.36,311.4183 562.38,355.0483 573.23,378.9983 " fill="none" id="app'-backto-app" style="stroke:#181818;stroke-width:1.0;"/><polygon fill="#181818" points="484.47,236.9483,487.7179,246.2462,487.8939,240.5921,493.548,240.768,484.47,236.9483" style="stroke:#181818;stroke-width:1.0;"/></g><!--reverse link app'' to app'--><g id="link_app''_app'"><path d="M467,122.4783 C467,144.9383 467,177.4083 467,199.7483 " fill="none" id="app''-backto-app'" style="stroke:#181818;stroke-width:1.0;"/><polygon fill="#181818" points="467,116.4783,463,125.4783,467,121.4783,471,125.4783,467,116.4783" style="stroke:#181818;stroke-width:1.0;"/></g><!--SRC=[VLExRXin4Epv5GkcK2K5ULGgNCGE41Mn3S5DOAUWZYk9C8yy7tasZ43_xbsITw84Eur4xWndNtFHH8jmvPj7x67LgXt2sbiCe9o67uEn6cxtAc0GeiScAhSZ-YyVed4x-2S0Zb7LTQ02_yrc2Jg8Wt0-8bZSHl1Ra0cJOfDqEOF6plfNsFRuDA2BzbKWHVbHdM-DBSkSfaiYL3IbBCSnQytg1-SoAP_UurI55vH-v2WgONw_DrgZ-zlFGHOPoPJnVCfW7KcjLmr8wnjbFr-kv0TDVBB6uMBZQInCg2aQdqliS8PG-cXQF46PFR-Oe2LyMK3ZsyvOV731cXQqVt4VZUa_PSXlYr5Lbd7oULRUQ1yZwggKDCJ6MqiAnhiqtagVm6ID3RtpBPk3S0fc9swfNBe4VCPUMRZyVHN0znJvUNst_dDxixg-2tGxUWMcZi-NbOgKDU6YZfSrvXjZNEOI97NnFQ772GG_z0s-uvyCLDufpFb0UhoGj0NZGbJMFhXEDO_qdOKpud5bNwkLvQbCjNFn9Pqa8bS_NhDArSmINlRqARCJHvjbokHiKTO-lSpEvX7aKBQooFzLR2RV0000]--></g></svg>