<?xml version="1.0" encoding="us-ascii" standalone="no"?><svg xmlns="http://www.w3.org/2000/svg" xmlns:xlink="http://www.w3.org/1999/xlink" contentStyleType="text/css" height="603px" preserveAspectRatio="none" style="width:599px;height:603px;background:#FFFFFF;" version="1.1" viewBox="0 0 599 603" width="599px" zoomAndPan="magnify"><defs/><g><text fill="#000000" font-family="sans-serif" font-size="14" font-weight="bold" lengthAdjust="spacing" textLength="144" x="220.5" y="23.5352">Docker Image Roles</text><!--cluster Hosting--><g id="cluster_Hosting"><rect fill="none" height="87.49" rx="2.5" ry="2.5" style="stroke:#181818;stroke-width:1.0;" width="78" x="427" y="44.4883"/><text fill="#000000" font-family="sans-serif" font-size="14" font-weight="bold" lengthAdjust="spacing" textLength="57" x="437.5" y="60.0234">Hosting</text></g><!--cluster Remote--><g id="cluster_Remote"><rect fill="none" height="87.49" rx="2.5" ry="2.5" style="stroke:#181818;stroke-width:1.0;" width="284" x="221" y="164.9783"/><text fill="#000000" font-family="sans-serif" font-size="14" font-weight="bold" lengthAdjust="spacing" textLength="55" x="335.5" y="180.5134">Remote</text></g><!--cluster local/CI--><g id="cluster_local/CI"><rect fill="none" height="312.42" rx="2.5" ry="2.5" style="stroke:#181818;stroke-width:1.0;" width="586" x="7" y="285.4683"/><text fill="#000000" font-family="sans-serif" font-size="14" font-weight="bold" lengthAdjust="spacing" textLength="57" x="271.5" y="301.0034">local/CI</text></g><!--cluster builder--><g id="cluster_builder"><rect fill="none" height="103.49" rx="2.5" ry="2.5" style="stroke:#181818;stroke-width:2.0;" width="287" x="39" y="336.4683"/><text fill="#000000" font-family="sans-serif" font-size="14" font-weight="bold" lengthAdjust="spacing" textLength="51" x="157" y="352.0034">builder</text></g><!--cluster runner--><g id="cluster_runner"><rect fill="none" height="103.49" rx="2.5" ry="2.5" style="stroke:#181818;stroke-width:2.0;" width="141" x="366" y="336.4683"/><text fill="#000000" font-family="sans-serif" font-size="14" font-weight="bold" lengthAdjust="spacing" textLength="47" x="413" y="352.0034">runner</text></g><!--entity app''--><g id="elem_app''"><rect fill="#F1F1F1" height="36.4883" rx="2.5" ry="2.5" style="stroke:#181818;stroke-width:0.5;" width="46" x="443" y="79.4883"/><text fill="#000000" font-family="sans-serif" font-size="14" lengthAdjust="spacing" textLength="26" x="453" y="103.0234">app</text></g><!--entity builder'--><g id="elem_builder'"><rect fill="#F1F1F1" height="36.4883" rx="2.5" ry="2.5" style="stroke:#181818;stroke-width:0.5;" width="69" x="236.5" y="199.9783"/><text fill="#000000" font-family="sans-serif" font-size="14" lengthAdjust="spacing" textLength="49" x="246.5" y="223.5134">builder</text></g><!--entity runner'--><g id="elem_runner'"><rect fill="#F1F1F1" height="36.4883" rx="2.5" ry="2.5" style="stroke:#181818;stroke-width:0.5;" width="67" x="340.5" y="199.9783"/><text fill="#000000" font-family="sans-serif" font-size="14" lengthAdjust="spacing" textLength="47" x="350.5" y="223.5134">runner</text></g><!--entity app'--><g id="elem_app'"><rect fill="#F1F1F1" height="36.4883" rx="2.5" ry="2.5" style="stroke:#181818;stroke-width:0.5;" width="46" x="443" y="199.9783"/><text fill="#000000" font-family="sans-serif" font-size="14" lengthAdjust="spacing" textLength="26" x="453" y="223.5134">app</text></g><!--entity app--><g id="elem_app"><rect fill="#F1F1F1" height="32.4883" rx="2.5" ry="2.5" style="stroke:#181818;stroke-width:2.0;" width="42" x="535" y="383.4683"/><rect fill="#F1F1F1" height="32.4883" rx="2.5" ry="2.5" style="stroke:#181818;stroke-width:2.0;" width="42" x="531" y="379.4683"/><text fill="#000000" font-family="sans-serif" font-size="14" lengthAdjust="spacing" textLength="26" x="539" y="401.0034">app</text></g><g id="elem_GMN18"><path d="M454.5,525.9583 L454.5,581.8899 A0,0 0 0 0 454.5,581.8899 L577.5,581.8899 A0,0 0 0 0 577.5,581.8899 L577.5,535.9583 L567.5,525.9583 L526.73,525.9583 L549.64,416.3983 L518.73,525.9583 L454.5,525.9583 A0,0 0 0 0 454.5,525.9583 " fill="#FEFFDD" style="stroke:#181818;stroke-width:0.5;"/><path d="M567.5,525.9583 L567.5,535.9583 L577.5,535.9583 L567.5,525.9583 " fill="#FEFFDD" style="stroke:#181818;stroke-width:0.5;"/><text fill="#000000" font-family="sans-serif" font-size="13" lengthAdjust="spacing" textLength="65" x="460.5" y="543.5266">Dockerfile</text><text fill="#000000" font-family="sans-serif" font-size="13" lengthAdjust="spacing" textLength="102" x="460.5" y="558.8372">several CMDs or</text><text fill="#000000" font-family="sans-serif" font-size="13" lengthAdjust="spacing" textLength="87" x="460.5" y="574.1477">ENTRYPOINTs</text></g><!--entity dev--><g id="elem_dev"><rect fill="#F1F1F1" height="36.4883" rx="2.5" ry="2.5" style="stroke:#181818;stroke-width:0.5;" width="44" x="82" y="379.4683"/><text fill="#000000" font-family="sans-serif" font-size="14" lengthAdjust="spacing" textLength="24" x="92" y="403.0034">dev</text></g><!--entity runtime--><g id="elem_runtime"><rect fill="#F1F1F1" height="36.4883" rx="2.5" ry="2.5" style="stroke:#181818;stroke-width:0.5;" width="74" x="228" y="379.4683"/><text fill="#000000" font-family="sans-serif" font-size="14" lengthAdjust="spacing" textLength="54" x="238" y="403.0034">runtime</text></g><!--entity runtime'--><g id="elem_runtime'"><rect fill="#F1F1F1" height="36.4883" rx="2.5" ry="2.5" style="stroke:#181818;stroke-width:1.0;stroke-dasharray:1.0,3.0;" width="74" x="409" y="379.4683"/><text fill="#000000" font-family="sans-serif" font-size="14" lengthAdjust="spacing" textLength="54" x="419" y="403.0034">runtime</text></g><!--entity source--><g id="elem_source"><rect fill="#F1F1F1" height="36.4883" rx="2.5" ry="2.5" style="stroke:#181818;stroke-width:0.5;" width="66" x="135" y="535.6783"/><text fill="#000000" font-family="sans-serif" font-size="14" lengthAdjust="spacing" textLength="46" x="145" y="559.2134">source</text></g><!--entity source'--><g id="elem_source'"><rect fill="#F1F1F1" height="36.4883" rx="2.5" ry="2.5" style="stroke:#181818;stroke-width:0.5;" width="69" x="300.5" y="535.6783"/><text fill="#000000" font-family="sans-serif" font-size="14" lengthAdjust="spacing" textLength="49" x="310.5" y="559.2134">source'</text></g><!--link builder' to runner'--><!--link runner' to app'--><!--link dev to runtime--><g id="link_dev_runtime"><path d="M126.39,397.7083 C152.57,397.7083 190.31,397.7083 221.65,397.7083 " fill="none" id="dev-to-runtime" style="stroke:#181818;stroke-width:1.0;"/><polygon fill="#181818" points="227.65,397.7083,218.65,393.7083,222.65,397.7083,218.65,401.7083,227.65,397.7083" style="stroke:#181818;stroke-width:1.0;"/><text fill="#000000" font-family="sans-serif" font-size="13" lengthAdjust="spacing" textLength="50" x="152" y="376.2766">compile</text><text fill="#000000" font-family="sans-serif" font-size="13" lengthAdjust="spacing" textLength="65" x="144.5" y="391.5872">slim down</text></g><!--link runtime to runtime'--><!--link runtime to runtime'--><g id="link_runtime_runtime'"><path d="M302.06,397.7083 C333.2,397.7083 371.47,397.7083 402.67,397.7083 " fill="none" id="runtime-to-runtime'" style="stroke:#181818;stroke-width:1.0;"/><polygon fill="#181818" points="408.67,397.7083,399.67,393.7083,403.67,397.7083,399.67,401.7083,408.67,397.7083" style="stroke:#181818;stroke-width:1.0;"/></g><!--link runtime' to app--><g id="link_runtime'_app"><path d="M483.12,397.7083 C499,397.7083 508.87,397.7083 524.74,397.7083 " fill="none" id="runtime'-to-app" style="stroke:#181818;stroke-width:1.0;"/><polygon fill="#181818" points="530.74,397.7083,521.74,393.7083,525.74,397.7083,521.74,401.7083,530.74,397.7083" style="stroke:#181818;stroke-width:1.0;"/></g><!--reverse link dev to source--><g id="link_dev_source"><path d="M108.3395,422.0112 C112.3295,441.9112 118.98,469.2783 131,495.9583 C137.3,509.9383 146.74,524.4083 154.51,535.2683 " fill="none" id="dev-backto-source" style="stroke:#181818;stroke-width:1.0;"/><polygon fill="#181818" points="107.16,416.1283,105.0074,425.739,108.1429,421.0307,112.8513,424.1663,107.16,416.1283" style="stroke:#181818;stroke-width:1.0;"/><text fill="#000000" font-family="sans-serif" font-size="13" lengthAdjust="spacing" textLength="39" x="142" y="477.5266">install</text><text fill="#000000" font-family="sans-serif" font-size="13" lengthAdjust="spacing" textLength="59" x="132" y="492.8372">packages</text></g><!--reverse link runtime to source--><g id="link_runtime_source"><path d="M250.6757,421.4773 C231.9657,451.2273 197.62,505.8283 179,535.4383 " fill="none" id="runtime-backto-source" style="stroke:#181818;stroke-width:1.0;"/><polygon fill="#181818" points="253.87,416.3983,245.6926,421.8874,251.2081,420.6308,252.4647,426.1464,253.87,416.3983" style="stroke:#181818;stroke-width:1.0;"/><text fill="#000000" font-family="sans-serif" font-size="13" lengthAdjust="spacing" textLength="50" x="223" y="477.5266">compile</text><text fill="#000000" font-family="sans-serif" font-size="13" lengthAdjust="spacing" textLength="23" x="236.5" y="492.8372">app</text></g><!--link runtime to source'--><g id="link_runtime_source'"><path d="M273.03,416.3983 C286.53,446.1483 311.1401,500.3648 324.5801,529.9748 " fill="none" id="runtime-to-source'" style="stroke:#181818;stroke-width:1.0;"/><polygon fill="#181818" points="327.06,535.4383,326.9825,525.5897,324.9934,530.8853,319.6978,528.8963,327.06,535.4383" style="stroke:#181818;stroke-width:1.0;"/></g><!--reverse link runtime' to source'--><g id="link_runtime'_source'"><path d="M429.9697,421.1386 C421.8597,432.4786 414.56,442.6583 405,455.9583 C385,483.7683 361.7,516.0083 347.67,535.4183 " fill="none" id="runtime'-backto-source'" style="stroke:#181818;stroke-width:1.0;"/><polygon fill="#181818" points="433.46,416.2583,424.971,421.252,430.5514,420.3253,431.4782,425.9057,433.46,416.2583" style="stroke:#181818;stroke-width:1.0;"/><text fill="#000000" font-family="sans-serif" font-size="13" lengthAdjust="spacing" textLength="37" x="398" y="485.0266">whole</text></g><!--reverse link builder' to builder--><g id="link_builder'_builder"><path d="M230.1215,218.602 C183.9115,219.632 109.23,228.7683 66,277.4683 C57.2325,287.3458 51.6294,299.5833 48.1642,312.4211 C46.4316,318.84 45.2336,325.409 44.4417,331.9081 C44.3427,332.7205 44.25,333.5318 44.1635,334.3415 C44.1202,334.7464 44.0785,335.1509 44.0382,335.555 C44.0181,335.757 43.9983,335.959 43.9789,336.1608 " fill="none" id="builder'-backto-builder" style="stroke:#181818;stroke-width:1.0;"/><polygon fill="#181818" points="236.12,218.4683,227.0331,214.6698,231.1212,218.5797,227.2114,222.6678,236.12,218.4683" style="stroke:#181818;stroke-width:1.0;"/></g><!--reverse link runner' to runner--><g id="link_runner'_runner"><path d="M374,242.8883 C374,264.9883 374,298.0508 374,332.0245 C374,333.0862 374,334.1429 374,335.194 C374,335.4568 374,335.7192 374,335.9812 " fill="none" id="runner'-backto-runner" style="stroke:#181818;stroke-width:1.0;"/><polygon fill="#181818" points="374,236.8883,370,245.8883,374,241.8883,378,245.8883,374,236.8883" style="stroke:#181818;stroke-width:1.0;"/></g><!--reverse link app' to app--><g id="link_app'_app"><path d="M479.5289,242.0377 C486.2189,253.4777 491.89,263.6083 499,277.4683 C517.2,312.9683 536.22,355.6583 546.43,379.1183 " fill="none" id="app'-backto-app" style="stroke:#181818;stroke-width:1.0;"/><polygon fill="#181818" points="476.5,236.8583,477.5904,246.6466,479.024,241.1744,484.4962,242.6081,476.5,236.8583" style="stroke:#181818;stroke-width:1.0;"/></g><!--reverse link app'' to app'--><g id="link_app''_app'"><path d="M466,122.4783 C466,144.9383 466,177.4083 466,199.7483 " fill="none" id="app''-backto-app'" style="stroke:#181818;stroke-width:1.0;"/><polygon fill="#181818" points="466,116.4783,462,125.4783,466,121.4783,470,125.4783,466,116.4783" style="stroke:#181818;stroke-width:1.0;"/></g><!--SRC=[VLCzRy8m4DtpAqxka2djpi02bSfGMY6MgdGmyHKi73kA7HWg_dlFiPCw4NI9p_VUVUJksKcd49QcF643gueV43P6eSso1al7zO7G5sETr0VuoG3-lBokWLj_v7a7NRDh6hN1oZYS1ErRgGHLei1ezh4fgscr3gHWtU8avIDA7zOdPL1y7gKGgB-Q0bXCmpobjySCduUDVu0fKtBrj5YnEp_neAJ6nxrHeYEa587dwBjE42hlP8KZrBEB-G3De3HLBHNkj5Mo0c4k-jwC_kcXJnV6wCqyqeLn3aNIGZUyqYX5mTBeRgn9QWArt-MUuam5vjlZv0oo-QPEwMBnZ0rNi7XTMZ0DUPxNsyt7-zjglRLqGoswBBvKtzfqILsJB2NCKtzSNxXvpBSnceerRLFY3Ra4895AP1OjfV7pdu7Krd6bThhcvOaUWfsmRgmdZ65erdSR2tLIw-qGdxG-WykHNfdNMo-cG1dqcyNz3f51ltulmHK4cuKpyUNi5m00]--></g></svg>